<?xml version="1.0" standalone="no"?>
<!DOCTYPE svg PUBLIC "-//W3C//DTD SVG 20010904//EN"
 "http://www.w3.org/TR/2001/REC-SVG-20010904/DTD/svg10.dtd">
<svg version="1.0" xmlns="http://www.w3.org/2000/svg"
 width="987.000000pt" height="967.000000pt" viewBox="0 0 987.000000 967.000000"
 preserveAspectRatio="xMidYMid meet">

<g transform="translate(0.000000,967.000000) scale(0.100000,-0.100000)"
fill="white" stroke="none">
<path d="M4888 8830 c-333 -53 -601 -317 -672 -662 -41 -200 3 -542 100 -777
118 -285 319 -488 540 -546 75 -19 213 -19 288 0 220 58 422 262 539 545 72
174 117 407 117 606 0 390 -251 723 -617 818 -77 20 -220 28 -295 16z"/>
<path d="M3147 7589 c-256 -36 -419 -294 -350 -553 l16 -62 -45 -59 c-128
-170 -216 -382 -253 -610 -23 -139 -18 -377 11 -491 5 -20 1 -24 -37 -34 -110
-30 -208 -111 -253 -210 -45 -101 -44 -119 24 -390 34 -135 66 -273 70 -308
16 -124 95 -233 208 -289 l57 -28 380 -3 381 -3 17 73 c28 121 79 212 171 304
85 85 154 128 256 158 49 14 173 16 1200 16 1027 0 1151 -2 1200 -16 102 -30
171 -73 256 -158 92 -92 143 -183 171 -304 l17 -73 381 3 380 3 57 28 c113 56
192 165 208 289 4 35 36 173 70 308 69 274 70 294 20 397 -35 73 -108 144
-185 180 l-60 28 -2365 5 -2365 5 -13 55 c-20 83 -27 313 -12 411 22 156 88
329 175 459 l46 69 54 -25 c114 -52 246 -52 363 1 73 33 166 124 203 200 156
316 -104 673 -454 624z"/>
<path d="M4272 6924 c-207 -36 -393 -129 -546 -275 -160 -151 -267 -340 -310
-546 l-14 -63 1598 0 1598 0 -14 63 c-82 391 -388 706 -784 806 -46 11 -101
21 -122 21 -33 0 -38 -3 -38 -24 0 -37 -124 -273 -234 -446 -138 -216 -261
-392 -263 -377 -2 7 -9 104 -18 217 -13 177 -13 205 0 212 57 33 115 116 115
167 0 19 -4 21 -22 15 -80 -25 -134 -34 -218 -34 -84 0 -138 9 -217 34 -19 6
-23 4 -23 -15 0 -51 58 -134 115 -167 13 -7 13 -34 0 -202 -8 -107 -15 -206
-15 -220 0 -22 -4 -19 -36 25 -219 306 -463 723 -464 792 0 12 -3 24 -7 26 -5
2 -41 -2 -81 -9z"/>
<path d="M3890 4851 c-97 -19 -199 -101 -246 -197 -53 -108 -56 -25 70 -2009
64 -1007 121 -1848 127 -1870 30 -107 105 -197 202 -241 l62 -29 895 0 895 0
62 29 c97 44 172 134 202 241 6 22 63 863 127 1870 126 1983 123 1901 70 2008
-33 68 -106 140 -175 175 l-56 27 -1100 1 c-605 1 -1116 -1 -1135 -5z"/>
</g>
</svg>
